<?xml version="1.0" encoding="utf-8"?>
<!-- Generator: Adobe Illustrator 17.0.0, SVG Export Plug-In . SVG Version: 6.00 Build 0)  -->
<!DOCTYPE svg PUBLIC "-//W3C//DTD SVG 1.0//EN" "http://www.w3.org/TR/2001/REC-SVG-20010904/DTD/svg10.dtd">
<svg version="1.0" id="Layer_1" xmlns="http://www.w3.org/2000/svg" xmlns:xlink="http://www.w3.org/1999/xlink" x="0px" y="0px"
	 width="538.416px" height="142.501px" viewBox="0 0 538.416 142.501" enable-background="new 0 0 538.416 142.501"
	 xml:space="preserve">
<linearGradient id="SVGID_1_" gradientUnits="userSpaceOnUse" x1="59.1977" y1="126.8439" x2="78.8032" y2="15.6561">
	<stop  offset="0" style="stop-color:#2E87FF"/>
	<stop  offset="1" style="stop-color:#2100DB"/>
</linearGradient>
<path fill="url(#SVGID_1_)" d="M108.334,104.928v-72.21c-1.375-1.146-2.251-2.871-2.251-4.801c0-3.452,2.798-6.251,6.251-6.251
	c3.451,0,6.25,2.799,6.25,6.251c0,1.93-0.876,3.653-2.25,4.801v75.199c0,4.904-2.692,6.55-3.85,7.029
	c-0.453,0.188-1.198,0.415-2.145,0.415c-1.474,0-3.437-0.551-5.548-2.662L29.667,37.572v72.21c1.375,1.146,2.25,2.871,2.25,4.802
	c0,3.451-2.798,6.25-6.25,6.25c-3.452,0-6.25-2.799-6.25-6.25c0-1.931,0.875-3.654,2.25-4.801v-75.2c0-4.904,2.692-6.549,3.85-7.028
	c1.157-0.481,4.225-1.221,7.692,2.247L108.334,104.928z"/>
<linearGradient id="SVGID_2_" gradientUnits="userSpaceOnUse" x1="85.4846" y1="138.3934" x2="110.0567" y2="-0.9621">
	<stop  offset="0" style="stop-color:#2E87FF"/>
	<stop  offset="1" style="stop-color:#2100DB"/>
</linearGradient>
<path fill="url(#SVGID_2_)" d="M127.334,2.25H73.801C72.655,0.876,70.93,0,69,0c-3.452,0-6.25,2.798-6.25,6.25
	c0,3.451,2.798,6.25,6.25,6.25c1.93,0,3.654-0.876,4.8-2.25h53.533c1.471,0,2.667,1.196,2.667,2.666v116.668
	c0,1.471-1.196,2.667-2.667,2.667h-30c-2.602,0-6.62-1.703-8.429-3.572L54.936,93.585c0.023-0.22,0.037-0.442,0.037-0.668
	c0-3.451-2.799-6.25-6.25-6.25c-3.452,0-6.25,2.799-6.25,6.25c0,3.452,2.799,6.25,6.25,6.25c0.155,0,0.308-0.013,0.461-0.022
	l33.974,35.098c3.315,3.426,9.41,6.009,14.177,6.009h30c5.882,0,10.667-4.785,10.667-10.667V12.916
	C138.001,7.035,133.216,2.25,127.334,2.25z"/>
<linearGradient id="SVGID_3_" gradientUnits="userSpaceOnUse" x1="27.9442" y1="143.4631" x2="52.5163" y2="4.1076">
	<stop  offset="0" style="stop-color:#2E87FF"/>
	<stop  offset="1" style="stop-color:#2100DB"/>
</linearGradient>
<path fill="url(#SVGID_3_)" d="M10.667,140.251H64.2c1.146,1.375,2.871,2.25,4.801,2.25c3.452,0,6.25-2.798,6.25-6.25
	c0-3.451-2.798-6.25-6.25-6.25c-1.93,0-3.654,0.875-4.8,2.25H10.667c-1.471,0-2.667-1.196-2.667-2.666V12.917
	c0-1.471,1.196-2.667,2.667-2.667h30c2.602,0,6.62,1.703,8.429,3.572l33.969,35.095c-0.023,0.219-0.037,0.441-0.037,0.667
	c0,3.451,2.798,6.25,6.25,6.25c3.452,0,6.25-2.799,6.25-6.25c0-3.452-2.799-6.25-6.25-6.25c-0.155,0-0.308,0.013-0.461,0.023
	L54.844,8.259c-3.315-3.426-9.41-6.009-14.177-6.009h-30C4.785,2.25,0,7.035,0,12.917v116.668
	C0,135.466,4.785,140.251,10.667,140.251z"/>
<g>
	<linearGradient id="SVGID_4_" gradientUnits="userSpaceOnUse" x1="391.0576" y1="132.6719" x2="391.0576" y2="44.2115">
		<stop  offset="0" style="stop-color:#2E87FF"/>
		<stop  offset="1" style="stop-color:#2100DB"/>
	</linearGradient>
	<path fill="url(#SVGID_4_)" d="M392.029,120.668c-3.344-0.915-4.371-1.344-4.371-3.173c0-1.685,1.229-2.543,3.627-2.543
		c1.248,0,3.818,0.258,5.018,0.386c0.354,0.039,0.672-0.217,0.707-0.572l0.129-1.285c0.035-0.356-0.221-0.695-0.574-0.754
		c-1.168-0.193-3.709-0.575-5.564-0.575c-3.914,0-6.516,1.629-6.516,5.572c0,3.401,1.83,4.688,6.059,5.773
		c3.002,0.714,3.887,1.286,3.887,2.942c0,2.059-1.115,3.144-3.543,3.144c-1.52,0-4.063-0.288-5.246-0.433
		c-0.355-0.043-0.678,0.206-0.721,0.561l-0.156,1.261c-0.043,0.353,0.205,0.697,0.557,0.76c1.201,0.218,3.855,0.652,5.766,0.652
		c3.857,0,6.545-1.857,6.545-6.144C397.631,122.897,396.145,121.811,392.029,120.668z"/>
	<linearGradient id="SVGID_5_" gradientUnits="userSpaceOnUse" x1="406.9345" y1="132.6719" x2="406.9345" y2="44.2115">
		<stop  offset="0" style="stop-color:#2E87FF"/>
		<stop  offset="1" style="stop-color:#2100DB"/>
	</linearGradient>
	<path fill="url(#SVGID_5_)" d="M407.873,112.494h-1.877c-0.358,0-0.647,0.289-0.647,0.647v18.283c0,0.357,0.289,0.646,0.647,0.646
		h1.877c0.357,0,0.646-0.289,0.646-0.646v-18.283C408.52,112.783,408.23,112.494,407.873,112.494z"/>
	<linearGradient id="SVGID_6_" gradientUnits="userSpaceOnUse" x1="422.8389" y1="132.6719" x2="422.8389" y2="44.2115">
		<stop  offset="0" style="stop-color:#2E87FF"/>
		<stop  offset="1" style="stop-color:#2100DB"/>
	</linearGradient>
	<path fill="url(#SVGID_6_)" d="M423.811,120.668c-3.344-0.915-4.371-1.344-4.371-3.173c0-1.685,1.227-2.543,3.629-2.543
		c1.246,0,3.816,0.258,5.016,0.386c0.356,0.039,0.672-0.217,0.707-0.572l0.129-1.285c0.035-0.356-0.223-0.695-0.572-0.754
		c-1.17-0.193-3.711-0.575-5.566-0.575c-3.916,0-6.516,1.629-6.516,5.572c0,3.401,1.83,4.688,6.059,5.773
		c3,0.714,3.887,1.286,3.887,2.942c0,2.059-1.113,3.144-3.543,3.144c-1.519,0-4.063-0.288-5.246-0.433
		c-0.355-0.043-0.678,0.206-0.721,0.561l-0.156,1.261c-0.043,0.353,0.205,0.697,0.557,0.76c1.201,0.218,3.856,0.652,5.766,0.652
		c3.857,0,6.545-1.857,6.545-6.144C429.412,122.897,427.926,121.811,423.811,120.668z"/>
	<linearGradient id="SVGID_7_" gradientUnits="userSpaceOnUse" x1="442.3877" y1="132.6719" x2="442.3877" y2="44.2115">
		<stop  offset="0" style="stop-color:#2E87FF"/>
		<stop  offset="1" style="stop-color:#2100DB"/>
	</linearGradient>
	<path fill="url(#SVGID_7_)" d="M448.887,112.494h-12.996c-0.357,0-0.646,0.289-0.646,0.647v1.536c0,0.356,0.289,0.646,0.646,0.646
		h4.277c0.358,0,0.648,0.289,0.648,0.647v15.454c0,0.357,0.289,0.646,0.647,0.646h1.908c0.355,0,0.646-0.289,0.646-0.646V115.97
		c0-0.358,0.289-0.647,0.646-0.647h4.223c0.355,0,0.645-0.29,0.645-0.646v-1.536C449.531,112.783,449.242,112.494,448.887,112.494z"
		/>
	<linearGradient id="SVGID_8_" gradientUnits="userSpaceOnUse" x1="462.622" y1="132.6719" x2="462.622" y2="44.2115">
		<stop  offset="0" style="stop-color:#2E87FF"/>
		<stop  offset="1" style="stop-color:#2100DB"/>
	</linearGradient>
	<path fill="url(#SVGID_8_)" d="M468.148,112.494h-11.053c-0.357,0-0.646,0.289-0.646,0.647v18.283c0,0.357,0.289,0.646,0.646,0.646
		h11.053c0.357,0,0.646-0.289,0.646-0.646v-1.508c0-0.357-0.289-0.646-0.646-0.646h-7.881c-0.357,0-0.646-0.29-0.646-0.646V124.2
		c0-0.356,0.289-0.646,0.646-0.646h6.166c0.357,0,0.646-0.289,0.646-0.646v-1.45c0-0.357-0.289-0.646-0.646-0.646h-6.166
		c-0.357,0-0.646-0.29-0.646-0.646v-4.252c0-0.356,0.289-0.646,0.646-0.646h7.881c0.357,0,0.646-0.289,0.646-0.647v-1.478
		C468.795,112.783,468.506,112.494,468.148,112.494z"/>
	<linearGradient id="SVGID_9_" gradientUnits="userSpaceOnUse" x1="486.4433" y1="132.6719" x2="486.4433" y2="44.2115">
		<stop  offset="0" style="stop-color:#2E87FF"/>
		<stop  offset="1" style="stop-color:#2100DB"/>
	</linearGradient>
	<path fill="url(#SVGID_9_)" d="M495.699,112.494h-4.25c-0.357,0-0.727,0.278-0.826,0.621l-4.016,14.046
		c-0.1,0.345-0.258,0.345-0.355,0l-4.016-14.046c-0.1-0.343-0.469-0.621-0.826-0.621h-4.223c-0.357,0-0.646,0.289-0.646,0.647
		v18.283c0,0.357,0.289,0.646,0.646,0.646h1.879c0.357,0,0.647-0.289,0.647-0.646v-14.769c0-0.356,0.096-0.646,0.215-0.646
		c0.117,0,0.299,0.276,0.402,0.618l4.254,14.023c0.104,0.341,0.477,0.618,0.834,0.618h2.022c0.357,0,0.732-0.277,0.836-0.618
		l4.254-14.023c0.103-0.342,0.283-0.618,0.402-0.618c0.117,0,0.213,0.289,0.213,0.646v14.769c0,0.357,0.289,0.646,0.646,0.646h1.908
		c0.357,0,0.646-0.289,0.646-0.646v-18.283C496.346,112.783,496.057,112.494,495.699,112.494z"/>
	<linearGradient id="SVGID_10_" gradientUnits="userSpaceOnUse" x1="511.4364" y1="132.6719" x2="511.4364" y2="44.2115">
		<stop  offset="0" style="stop-color:#2E87FF"/>
		<stop  offset="1" style="stop-color:#2100DB"/>
	</linearGradient>
	<path fill="url(#SVGID_10_)" d="M514.736,113.121c-0.086-0.346-0.445-0.627-0.803-0.627h-5.021c-0.358,0-0.717,0.281-0.803,0.628
		l-4.519,18.319c-0.086,0.348,0.133,0.629,0.49,0.629h1.881c0.357,0,0.717-0.281,0.803-0.627l0.742-2.947
		c0.088-0.347,0.449-0.627,0.805-0.627h6.223c0.357,0,0.717,0.28,0.805,0.627l0.742,2.947c0.086,0.346,0.447,0.627,0.805,0.627
		h1.906c0.357,0,0.578-0.281,0.492-0.627L514.736,113.121z M513.904,125.068h-4.965c-0.357,0-0.578-0.281-0.492-0.628l2.121-8.66
		c0.084-0.348,0.443-0.629,0.801-0.629h0.135c0.357,0,0.715,0.281,0.799,0.63l2.098,8.659
		C514.482,124.787,514.262,125.068,513.904,125.068z"/>
	<linearGradient id="SVGID_11_" gradientUnits="userSpaceOnUse" x1="531.8437" y1="132.6719" x2="531.8437" y2="44.2115">
		<stop  offset="0" style="stop-color:#2E87FF"/>
		<stop  offset="1" style="stop-color:#2100DB"/>
	</linearGradient>
	<path fill="url(#SVGID_11_)" d="M532.814,120.668c-3.342-0.915-4.371-1.344-4.371-3.173c0-1.685,1.229-2.543,3.629-2.543
		c1.246,0,3.816,0.258,5.016,0.386c0.355,0.039,0.672-0.217,0.707-0.572l0.129-1.285c0.035-0.356-0.221-0.695-0.574-0.754
		c-1.168-0.193-3.709-0.575-5.562-0.575c-3.916,0-6.516,1.629-6.516,5.572c0,3.401,1.828,4.688,6.057,5.773
		c3,0.714,3.887,1.286,3.887,2.942c0,2.059-1.113,3.144-3.543,3.144c-1.519,0-4.063-0.288-5.246-0.433
		c-0.354-0.043-0.676,0.206-0.721,0.561l-0.154,1.261c-0.045,0.353,0.203,0.697,0.555,0.76c1.201,0.218,3.856,0.652,5.768,0.652
		c3.857,0,6.543-1.857,6.543-6.144C538.416,122.897,536.932,121.811,532.814,120.668z"/>
	<linearGradient id="SVGID_12_" gradientUnits="userSpaceOnUse" x1="222.8674" y1="132.6719" x2="222.8674" y2="44.2115">
		<stop  offset="0" style="stop-color:#2E87FF"/>
		<stop  offset="1" style="stop-color:#2100DB"/>
	</linearGradient>
	<path fill="url(#SVGID_12_)" d="M248.442,44.899h-6.766c-1.027,0-1.863,0.799-1.863,1.782v42.87l-27.148-41.783
		c-1.014-1.556-2.779-2.869-3.854-2.869h-11.6c-0.983,0-1.782,0.836-1.782,1.862v48.978c0,0.992,0.87,1.861,1.862,1.861h6.928
		c0.992,0,1.862-0.869,1.862-1.861V55.726l25.144,39.019c1.042,1.628,2.835,2.856,4.169,2.856h13.048
		c1.028,0,1.864-0.835,1.864-1.861V46.762C250.306,45.683,249.522,44.899,248.442,44.899z"/>
	<linearGradient id="SVGID_13_" gradientUnits="userSpaceOnUse" x1="442.3902" y1="132.6719" x2="442.3902" y2="44.2115">
		<stop  offset="0" style="stop-color:#2E87FF"/>
		<stop  offset="1" style="stop-color:#2100DB"/>
	</linearGradient>
	<path fill="url(#SVGID_13_)" d="M470.904,44.899h-8.62c-1.356,0-2.457,1.406-2.989,2.617l-16.904,37.656l-16.912-37.668
		c-0.529-1.202-1.629-2.606-2.984-2.606h-8.62c-0.364,0-0.745,0.185-0.904,0.438c-0.048,0.077-0.063,0.12-0.001,0.251L435.6,94.636
		c0.971,2.078,2.158,2.965,3.969,2.965h5.641c1.813,0,2.999-0.885,3.965-2.958l22.644-49.074c0.051-0.104,0.043-0.148-0.01-0.229
		C471.648,45.084,471.267,44.899,470.904,44.899z"/>
	<linearGradient id="SVGID_14_" gradientUnits="userSpaceOnUse" x1="508.602" y1="132.6719" x2="508.602" y2="44.2115">
		<stop  offset="0" style="stop-color:#2E87FF"/>
		<stop  offset="1" style="stop-color:#2100DB"/>
	</linearGradient>
	<path fill="url(#SVGID_14_)" d="M508.603,98.809c20.341,0,29.813-8.757,29.813-27.559c0-18.802-9.473-27.559-29.813-27.559
		c-20.341,0-29.815,8.757-29.815,27.559C478.788,90.052,488.262,98.809,508.603,98.809z M508.603,52.639
		c12.394,0,18.679,4.935,18.679,18.611c0,13.678-6.285,18.612-18.679,18.612c-12.394,0-18.677-4.935-18.677-18.612
		C489.926,57.573,496.209,52.639,508.603,52.639z"/>
	<linearGradient id="SVGID_15_" gradientUnits="userSpaceOnUse" x1="394.7831" y1="132.6719" x2="394.7831" y2="44.2115">
		<stop  offset="0" style="stop-color:#2E87FF"/>
		<stop  offset="1" style="stop-color:#2100DB"/>
	</linearGradient>
	<path fill="url(#SVGID_15_)" d="M398.409,44.899h-7.331c-1.027,0-1.863,0.836-1.863,1.862v49.057c0,0.983,0.836,1.782,1.863,1.782
		h7.331c1.071,0,1.942-0.835,1.942-1.861V46.762C400.351,45.718,399.498,44.899,398.409,44.899z"/>
	<linearGradient id="SVGID_16_" gradientUnits="userSpaceOnUse" x1="349.8354" y1="132.6719" x2="349.8354" y2="44.2115">
		<stop  offset="0" style="stop-color:#2E87FF"/>
		<stop  offset="1" style="stop-color:#2100DB"/>
	</linearGradient>
	<path fill="url(#SVGID_16_)" d="M374.808,44.899h-49.943c-1.079,0-1.862,0.783-1.862,1.862v5.707c0,1.079,0.783,1.861,1.862,1.861
		h19.403v41.488c0,0.983,0.835,1.782,1.861,1.782h7.41c1.028,0,1.865-0.799,1.865-1.782V54.33h19.403
		c1.079,0,1.861-0.782,1.861-1.861v-5.707C376.669,45.683,375.887,44.899,374.808,44.899z"/>
	<linearGradient id="SVGID_17_" gradientUnits="userSpaceOnUse" x1="293.6789" y1="132.6719" x2="293.6789" y2="44.2115">
		<stop  offset="0" style="stop-color:#2E87FF"/>
		<stop  offset="1" style="stop-color:#2100DB"/>
	</linearGradient>
	<path fill="url(#SVGID_17_)" d="M300.465,47.864c-0.968-2.078-2.154-2.965-3.967-2.965h-5.639c-1.81,0-2.997,0.886-3.965,2.959
		L264.25,96.933c-0.05,0.106-0.042,0.148,0.009,0.229c0.161,0.255,0.542,0.439,0.905,0.439h8.619c1.358,0,2.459-1.405,2.99-2.615
		l16.905-37.657l16.913,37.669c0.527,1.201,1.627,2.604,2.984,2.604h8.619c0.363,0,0.744-0.185,0.904-0.439
		c0.049-0.076,0.063-0.119,0-0.248L300.465,47.864z"/>
</g>
<g>
</g>
<g>
</g>
<g>
</g>
<g>
</g>
<g>
</g>
<g>
</g>
</svg>
